<?xml version="1.0" encoding="UTF-8"?>
<svg id="Layer_2" data-name="Layer 2" xmlns="http://www.w3.org/2000/svg" viewBox="0 0 3411.17 967.35">
  <defs>
    <style>
      .cls-1 {
        fill: none;
      }

      .cls-1, .cls-2, .cls-3, .cls-4 {
        stroke-width: 0px;
      }

      .cls-2 {
        fill: #538aac;
      }

      .cls-3 {
        fill: #0f5387;
      }

      .cls-4 {
        fill: #0a376e;
      }
    </style>
  </defs>
  <g id="Logo_Master" data-name="Logo Master">
    <g id="Strap">
      <path class="cls-4" d="M229.05,261.5c63.45,0,110.4,19.67,153.54,59.01,5.71,5.08,5.71,12.69.63,17.77l-49.49,51.39c-4.44,4.44-11.42,4.44-15.86,0-23.48-20.94-54.57-32.36-85.65-32.36-71.7,0-124.36,59.64-124.36,130.7s53.3,128.8,124.99,128.8c29.82,0,62.18-10.79,85.02-30.46,4.44-3.81,12.69-3.81,16.5.64l49.49,52.66c4.44,4.44,3.81,12.69-.63,17.13-43.14,41.87-97.71,61.54-154.18,61.54C102.15,718.33,0,617.44,0,490.55s102.15-229.05,229.05-229.05Z"/>
      <path class="cls-4" d="M1034.07,272.92c0-6.34,5.71-11.42,12.06-11.42h15.86l253.16,243.64h.63v-225.24c0-6.34,5.08-12.06,12.06-12.06h76.14c6.35,0,12.06,5.71,12.06,12.06v427c0,6.34-5.71,11.42-12.06,11.42h-10.15c-1.9,0-6.98-1.9-8.25-3.17l-250.62-251.89h-.63v236.66c0,6.34-5.08,12.05-12.06,12.05h-75.5c-6.34,0-12.06-5.71-12.06-12.05l-.63-427.01Z"/>
      <path class="cls-4" d="M1604.16,361.11h-90.73c-6.98,0-12.05-5.71-12.05-12.06v-69.16c0-6.34,5.08-12.06,12.05-12.06h281.71c6.98,0,12.05,5.71,12.05,12.06v69.16c0,6.34-5.08,12.06-12.05,12.06h-90.73v338.81c0,6.34-5.71,12.05-12.06,12.05h-76.14c-6.34,0-12.06-5.71-12.06-12.05v-338.81Z"/>
      <path class="cls-4" d="M1892.53,279.9c0-6.34,5.08-12.06,12.06-12.06h189.71c76.14,0,138.32,61.55,138.32,137.05,0,58.37-38.7,105.32-93.9,127.53l86.92,161.16c4.44,8.25,0,18.4-10.79,18.4h-84.39c-5.08,0-8.88-3.17-10.15-5.71l-84.39-168.14h-43.78v161.79c0,6.34-5.71,12.05-12.06,12.05h-75.5c-6.98,0-12.06-5.71-12.06-12.05v-420.03ZM2086.05,457.56c26.01,0,48.22-24.11,48.22-50.76s-22.21-48.22-48.22-48.22h-93.9v98.98h93.9Z"/>
      <path class="cls-4" d="M2282.43,695.49l198.59-427c1.9-3.81,6.35-6.98,10.79-6.98h6.35c4.44,0,8.88,3.17,10.79,6.98l198.59,427c3.81,8.25-1.27,16.5-10.79,16.5h-70.43c-11.42,0-16.5-3.8-22.21-15.86l-22.84-50.12h-172.58l-22.84,50.76c-3.17,7.62-10.15,15.23-22.84,15.23h-69.79c-9.52,0-14.59-8.25-10.79-16.5ZM2543.2,559.71l-48.22-104.69h-.63l-47.59,104.69h96.44Z"/>
      <path class="cls-4" d="M2756.07,651.71l29.82-52.66c5.08-8.25,17.13-6.98,21.57-3.8,2.54,1.27,48.22,34.9,90.1,34.9,25.38,0,43.78-15.86,43.78-38.07,0-26.65-22.21-46.95-65.35-64.08-54.57-21.57-123.09-64.08-123.09-140.22,0-62.81,48.85-126.26,146.57-126.26,65.99,0,116.74,33.63,135.78,47.58,7.61,4.44,6.34,15.86,3.81,20.3l-32.36,48.86c-4.44,6.98-15.86,12.69-21.57,8.25-5.71-3.17-52.03-38.07-90.73-38.07-22.84,0-39.97,15.22-39.97,32.36,0,23.48,19.03,41.24,69.16,61.55,49.49,19.67,128.17,58.37,128.17,144.66,0,65.35-56.47,131.33-149.74,131.33-82.48,0-128.16-34.26-142.76-48.85-6.35-6.34-8.25-8.88-3.17-17.76Z"/>
      <path class="cls-4" d="M3208.14,361.11h-90.73c-6.98,0-12.05-5.71-12.05-12.06v-69.16c0-6.34,5.08-12.06,12.05-12.06h281.71c6.98,0,12.06,5.71,12.06,12.06v69.16c0,6.34-5.08,12.06-12.06,12.06h-90.73v338.81c0,6.34-5.71,12.05-12.06,12.05h-76.14c-6.34,0-12.05-5.71-12.05-12.05v-338.81Z"/>
      <path class="cls-2" d="M787.65,494.62c.66,125.12-182.42,125.83-188.03,5.95-2.48-126.2,184.82-129.45,188.03-5.95ZM635.58,494.27c-3.2,75.7,116.91,83.94,116.16-1.04-6.41-74.94-112.82-69.87-116.16,1.04Z"/>
      <g>
        <path class="cls-3" d="M864.38,510.76c-.3,12.63-3.64,24.7-7.35,36.67-1.74,4.25-2.71,11.15-8.47,11.19-11.6.07-22.96,2.06-34.34,4.04-6.12.12-.67-6.9.29-9.71,5.37-10.72,8.82-22.31,11.18-34.02,10.22-55.17-17.23-113.87-66.45-140.95-63.03-37.66-148.66-12.85-183.53,51.35-14.72,25.3-20.02,55.67-15.74,84.51,1.9,16.01,7.27,30.89,14.78,45.09.53,1.01,1.32,3.83.16,3.66-13.28-1.92-24.23-2.64-36.15-4.57-11.58-1.87-10.94-14.67-12.3-21.62-11.7-59.87,4.46-126.47,49.95-167.63,115.2-106.7,302.16-15.25,287.96,142Z"/>
        <path class="cls-3" d="M911.44,603.47c.56-2.18.09-4.04-1.78-5.48-1.82-1.41-4.1-2.2-6.29-2.83-4.14-1.2-8.43-1.75-12.7-2.26-9.39-1.13-18.87-.76-28.3-.69-82.24.83-112.88,49.3-202.14,34.95-31.39-3.85-58.29-21.35-88.73-28.59-16.4-3.94-32.93-6.59-49.85-6.41-15.37.58-32.57-.78-47.06,4.6-3.35,4.75,11.47,22.71,13.84,29.08,1.67,2.96,4.08,3.77,7.26,3.35,14.32-1.91,28.68-1.6,42.98-.08,19.5,2.07,38.07,7.82,56.09,15.43,52.81,24.71,114.98,28.5,170.21,9.65,39.29-17.39,81.5-31.37,124.99-24.17,3.94.4,6.62,1.25,8.34-1.73,2.09-3.64,4.11-7.32,6.03-11.06,1-1.95,1.96-3.83,3.07-5.7s2.15-3.91,3.15-5.89c.23-.46.47-.92.64-1.41l.04-.12c.07-.21.13-.42.19-.63Z"/>
        <path class="cls-4" d="M977.35,28.15l1.69,13.9c25.32-3.02,49.44,16.75,56.08,46.02l13.77-2.47c-4.77-35.97-36.83-61.73-71.53-57.44Z"/>
        <path class="cls-4" d="M370.37,936.53l-1.69-13.9c-25.32,3.02-49.44-16.75-56.08-46.02l-13.77,2.47c4.77,35.97,36.83,61.73,71.53,57.44Z"/>
        <g>
          <circle class="cls-1" cx="988.01" cy="89.42" r="74.62" transform="translate(-1.57 159.42) rotate(-9.22)"/>
          <path class="cls-1" d="M352.66,116.23c-1.54-.14-3.07-.2-4.59-.2-26.42,0-48.99,20.24-51.37,47.05-2.51,28.34,18.5,53.45,46.84,55.96,28.35,2.51,53.45-18.5,55.97-46.85,2.51-28.34-18.5-53.45-46.85-55.96Z"/>
          <path class="cls-4" d="M491.55,528.51c-1.76-10.39-3.11-21.17-3.03-31.73.16-21.07,2.31-42.51,8.89-62.6,29.65-101.26,141.32-165.99,243.79-139.25,94.35,21.56,164.3,115.78,155.88,212.48-.53,11.13-3.4,21.82-4.99,32.87-2.42,16.82-5.88,16.67,4.24,18.72,7.9,1.6,16.13,1.91,24.09,3.29,4.29.75,5.93.14,6.94-4.2,3.2-14.18,6.8-28.45,7.46-43.01,7.45-92.01-33.92-169-96.99-215.7l105.13-133.77c13.07,7.59,28.24,11.93,44.4,11.93,48.95,0,88.77-39.82,88.77-88.77S1036.31,0,987.36,0s-88.77,39.82-88.77,88.77c0,25.19,10.55,47.97,27.46,64.14l-105.78,134.58c-78.61-48.45-183.94-53.02-271.71,11.19-11.51,8.59-22.24,18.24-32.05,28.76l-120.11-120.01c7.79-9.42,12.91-21.19,14.07-34.26.17-1.87.25-3.73.25-5.58,0-32.05-24.57-59.44-57.08-62.32-34.4-3.04-64.85,22.45-67.9,56.83-3.05,34.39,22.45,64.85,56.83,67.9,1.87.16,3.73.24,5.58.24,12.68,0,24.64-3.85,34.63-10.51l121.7,121.6c-26.09,32.51-44.02,71.64-50.47,112.82-5.69,34.22-3.79,69.6,5.29,103.1,1.02,3.62,2.92,4.68,6.58,4.06,5.43-.67,10.88-1.11,16.31-1.81,2.76-.35,5.49-.84,8.23-1.31,8.86-1.54,5.81-3.28,2.62-21.39l-1.49-8.29ZM343.54,219.04c-28.34-2.51-49.35-27.62-46.84-55.96,2.38-26.81,24.95-47.05,51.37-47.05,1.52,0,3.05.06,4.59.2,28.35,2.51,49.36,27.62,46.85,55.96-2.52,28.35-27.62,49.36-55.97,46.85ZM1062.63,89.42c0,41.15-33.48,74.62-74.62,74.62s-74.62-33.48-74.62-74.62,33.48-74.62,74.62-74.62,74.62,33.48,74.62,74.62Z"/>
        </g>
        <path class="cls-4" d="M1067.54,806.75c-19.78-24.63-58.38-29.68-83.79-11.06,0-.02-125.3-125.4-125.26-125.45,0,0-.02,0-.05-.03-6.12-5.49-10.82-12.88-16.86-12.88-.8,0-1.62.13-2.47.41-7.9,3.69-19.56,9.35-25.28,11.82-56.99,26.25-121.75,42.33-183.41,22.83-33.77-8.66-66.36-28.61-100.06-35.02-6.48-2.07-10.01-1.5-14.14,4.37l-107.72,137.06h0c-14.17-9.2-28.62-12.67-46.74-12.67-49.97,0-90.62,40.65-90.62,90.62s40.65,90.61,90.62,90.61,90.61-40.65,90.61-90.61c0-26.7-8.66-48.48-27.09-65.07h0l105.51-134.24c85.41,78.33,227.04,82.1,315.82,7.13l123.83,123.71c-32.4,39.2-1.68,102.46,49.29,101.08,51.66,1.25,82.08-63.79,47.81-102.61ZM438.37,876.75c0,42.24-34.37,76.61-76.61,76.61s-76.62-34.37-76.62-76.61,34.37-76.62,76.62-76.62,76.61,34.37,76.61,76.62ZM968.33,842.31c8.05-67.64,106.59-58.84,102.58,9.1-8.04,67.62-106.56,58.86-102.58-9.1Z"/>
      </g>
    </g>
  </g>
</svg>